<svg xmlns="http://www.w3.org/2000/svg" xmlns:xlink="http://www.w3.org/1999/xlink" width="48" height="48" viewBox="0 0 48 48">
  <defs>
    <clipPath id="clip-path">
      <rect id="Rectangle_17" data-name="Rectangle 17" width="48" height="48" fill="#734b34"/>
    </clipPath>
  </defs>
  <g id="Mask_Group_5" data-name="Mask Group 5" clip-path="url(#clip-path)">
    <g id="Layer_1" data-name="Layer 1" transform="translate(0 5.543)">
      <g id="Group_30" data-name="Group 30">
        <path id="Path_27" data-name="Path 27" d="M39.145,15.485c-9.465-.665-9.054-1.792-13.973-1.46-4.6.311-5.009,1.3-10.48,1.46-2.954.086-4.058-.172-6.987,0a39.478,39.478,0,0,0-5.625.719c-1.952.386-2.8,2.436-1.4,3.638l.039.032c1.8,1.513,4.469,1.685,8.733,1.46,7.243-.386,7.667-1.309,12.226-1.46,4.79-.161,4.572.859,13.973,1.46,5.278.333,8.284.2,10.48-1.46.205-.161,2.26-1.739,1.747-2.919-.539-1.234-3.48-1.084-8.733-1.46Z" transform="translate(0.018 0.736)" fill="#734b34"/>
        <path id="Path_28" data-name="Path 28" d="M38.49,28.089c-7.243.4-7.667,1.356-12.226,1.511-4.79.167-4.572-.889-13.973-1.511-5.278-.345-8.284-.211-10.48,1.511-.205.167-2.26,1.8-1.747,3.023C.6,33.9,3.545,33.746,8.8,34.135c9.465.689,9.054,1.856,13.973,1.511,4.6-.322,5.009-1.345,10.48-1.511,2.954-.089,4.058.178,6.987,0a38.983,38.983,0,0,0,5.741-.767c1.965-.411,2.658-2.523,1.246-3.767-1.8-1.567-4.469-1.745-8.733-1.511Z" transform="translate(0.018 1.206)" fill="#734b34"/>
        <path id="Path_29" data-name="Path 29" d="M8.81,5.734c9.465.637,9.054,1.716,13.973,1.4,4.6-.3,5.009-1.243,10.48-1.4,2.954-.082,4.058.164,6.987,0a41.991,41.991,0,0,0,5.741-.709c1.965-.38,2.658-2.332,1.246-3.483C45.438.093,42.767-.071,38.5.145c-7.243.37-7.667,1.253-12.226,1.4C21.486,1.7,21.7.72,12.3.145c-5.278-.319-8.271-.2-10.48,1.4C1.618,1.7-.437,3.206.077,4.337c.539,1.182,3.48,1.038,8.733,1.4Z" transform="translate(0.018 -0.003)" fill="#734b34"/>
      </g>
    </g>
  </g>
</svg>
