<svg xmlns="http://www.w3.org/2000/svg" xmlns:xlink="http://www.w3.org/1999/xlink" width="48" height="48" viewBox="0 0 48 48">
  <defs>
    <clipPath id="clip-path">
      <rect id="Rectangle_11" data-name="Rectangle 11" width="48" height="48" fill="#fff"/>
    </clipPath>
  </defs>
  <g id="Mask_Group_2" data-name="Mask Group 2" clip-path="url(#clip-path)">
    <g id="Layer_1" data-name="Layer 1" transform="translate(0 2.926)">
      <path id="Path_22" data-name="Path 22" d="M42.506,34.748c-1.785-2.478-1.6-3.916-3.643-5.477-1.822-1.388-5.341-3.47-6.382-4.56-1.809-1.884,1.822-3.643,2.739-8.216.967-4.845.706-7.374,0-9.121C32.852,1.524,23.4-.434,16.965.074,14.4.285,6.481.929,2.367,7.374,1.747,8.353-1.2,13.248.545,18.316c2.057,5.986,9.505,8.836,14.6,9.121,3.656.2,6.035-.05,10.038.917a15.377,15.377,0,0,1,6.382,2.739c6.543,4.932,6.469,10.112,10.943,10.943,2.5.471,5.242-.644,5.477-1.822.26-1.326-2.8-1.76-5.477-5.477ZM26.532,20.832c-4.672,3.916-14.127,2.057-17.783.235-3.891-1.946-4.238-6.32-2.231-10.348,2.28-4.573,6.9-6.072,11.351-6.072,3.433,0,8.4,0,10.943,3.643,2.565,3.668,1.276,9.555-2.293,12.541Z" transform="translate(0.001 0.003)" fill="#ebd3b0"/>
    </g>
  </g>
</svg>
