<svg xmlns="http://www.w3.org/2000/svg" viewBox="0 0 38.73 34.02"><defs><style>.cls-1{fill:#734b34;}</style></defs><g id="Laag_2" data-name="Laag 2"><g id="Layer_1" data-name="Layer 1"><path class="cls-1" d="M34.3,28c-1.43-2-1.28-3.16-2.94-4.42-1.48-1.12-4.31-2.8-5.16-3.68-1.46-1.52,1.48-2.94,2.21-6.62.78-3.91.57-5.95,0-7.37C26.51,1.23,18.88-.35,13.69.06,11.62.23,5.23.75,1.91,6,1.41,6.74-1,10.7.44,14.79c1.66,4.83,7.67,7.13,11.78,7.36,2.94.16,4.87,0,8.1.74a12.49,12.49,0,0,1,5.15,2.2c5.28,4,5.22,8.16,8.83,8.84,2,.38,4.23-.52,4.42-1.47S36.46,31,34.3,28ZM21.41,16.81C17.64,20,10,18.47,7.07,17c-3.14-1.57-3.42-5.1-1.8-8.36C7.1,5,10.84,3.75,14.43,3.75c2.76,0,6.78,0,8.83,2.94S24.29,14.4,21.41,16.81Z"/></g></g></svg>