<svg xmlns="http://www.w3.org/2000/svg" viewBox="0 0 32.32 36.51"><defs><style>.cls-1{fill:#734b34;}</style></defs><g id="Laag_2" data-name="Laag 2"><g id="Layer_1" data-name="Layer 1"><path class="cls-1" d="M32.15,28.31c-.34-2.57-1.13-2.56-2-5.74a36.65,36.65,0,0,1-1-6.7c-.19-2.52-.08-3.6-1-4.79a6,6,0,0,0-3-1.91c-2.17-.72-3.7-.23-6,0-6.09.61-7.72-1.57-12,0a5.6,5.6,0,0,0-3,1.91c-1,1.53-.15,2.52-1,5.75-.33,1.28-.46,1.07-1,2.87a10.9,10.9,0,0,0-1,4.78c0,2.27-.61,3.38-1,5.74-.52,3.27.41,4.11,1,4.79a2.29,2.29,0,0,0,2,1c3.71,0,6.58,0,7,0a50.17,50.17,0,0,1,9,0c4.57.32,6.36,1.05,9,0a6.63,6.63,0,0,0,3-1.92C32.67,32.17,32.35,29.75,32.15,28.31ZM27,32.12a4.09,4.09,0,0,1-1.81.87,7.46,7.46,0,0,1-3.63,0c-2.27-.5-5.45-.33-11.79,0-1.64.09-3.4.23-4.54-.87a3.3,3.3,0,0,1-.9-1.73c-.57-2.32.23-3.83.9-6.95.32-1.45.88-4.52,1.82-8.68A3.13,3.13,0,0,1,8,13c.65-.58,1.51-.78,3.63-.87,1.6-.06,2.2,0,3.63,0a53.64,53.64,0,0,1,6.35,0c1.6.18,2.23.4,2.72.87a3.9,3.9,0,0,1,.91,2.61s0,.14.91,5.21c.64,3.67,1.55,3.71,1.81,6.94C28.16,30.6,27.63,31.58,27,32.12Z"/><path class="cls-1" d="M11.57,7.78h.19a1.49,1.49,0,0,0,1.48-1.31,3.63,3.63,0,0,1,.67-2.09,5,5,0,0,1,5.95-.72,3,3,0,0,1,1.23,2.45A1.49,1.49,0,0,0,22.7,7.5a1.51,1.51,0,0,0,1.38-1.62,6,6,0,0,0-2.43-4.62,8,8,0,0,0-10,1.2,6.42,6.42,0,0,0-1.33,3.65A1.49,1.49,0,0,0,11.57,7.78Z"/></g></g></svg>