<svg xmlns="http://www.w3.org/2000/svg" viewBox="0 0 37.36 28.74"><defs><style>.cls-1{fill:#734b34;}</style></defs><g id="Laag_2" data-name="Laag 2"><g id="Layer_1" data-name="Layer 1"><path class="cls-1" d="M30.48,12.06c-7.37-.54-7-1.44-10.88-1.17-3.57.25-3.9,1-8.16,1.17-2.3.07-3.15-.14-5.43,0a31.73,31.73,0,0,0-4.38.57c-1.52.31-2.18,1.95-1.09,2.9l0,0C2,16.77,4,16.9,7.37,16.72c5.64-.3,6-1,9.51-1.16,3.74-.13,3.56.69,10.88,1.16,4.1.27,6.44.16,8.16-1.16.16-.13,1.76-1.39,1.36-2.34S34.56,12.35,30.48,12.06Z"/><path class="cls-1" d="M30,23c-5.64.3-6,1-9.51,1.15-3.74.12-3.56-.68-10.88-1.15-4.11-.26-6.44-.16-8.16,1.15-.16.12-1.76,1.36-1.36,2.29s2.71.86,6.8,1.15c7.37.52,7.05,1.41,10.88,1.15,3.57-.25,3.9-1,8.15-1.15,2.31-.07,3.16.13,5.44,0A32.44,32.44,0,0,0,35.8,27c1.54-.31,2.08-1.92,1-2.86C35.37,22.92,33.3,22.78,30,23Z"/><path class="cls-1" d="M6.86,4.66c7.37.52,7.05,1.4,10.88,1.14,3.57-.25,3.9-1,8.15-1.14,2.31-.07,3.16.13,5.44,0a31,31,0,0,0,4.47-.58c1.54-.3,2.08-1.89,1-2.83C35.37.07,33.3-.06,30,.12c-5.64.29-6,1-9.51,1.13C16.72,1.37,16.9.58,9.58.12,5.47-.15,3.14,0,1.42,1.25,1.26,1.37-.34,2.6.06,3.52S2.77,4.37,6.86,4.66Z"/></g></g></svg>